<?xml version="1.0" encoding="UTF-8" standalone="no"?>
<svg
   viewBox="0 0 50 50"
   width="50"
   height="50"
   version="1.1"
   id="svg11"
   sodipodi:docname="rider_rider.svg"
   inkscape:version="1.4.2 (ebf0e940d0, 2025-05-08)"
   xmlns:inkscape="http://www.inkscape.org/namespaces/inkscape"
   xmlns:sodipodi="http://sodipodi.sourceforge.net/DTD/sodipodi-0.dtd"
   xmlns="http://www.w3.org/2000/svg"
   xmlns:svg="http://www.w3.org/2000/svg"
   xmlns:rdf="http://www.w3.org/1999/02/22-rdf-syntax-ns#"
   xmlns:cc="http://creativecommons.org/ns#"
   xmlns:dc="http://purl.org/dc/elements/1.1/">
  <sodipodi:namedview
     id="namedview7"
     pagecolor="#9c4444"
     bordercolor="#000000"
     borderopacity="0.25"
     inkscape:showpageshadow="2"
     inkscape:pageopacity="0.0"
     inkscape:pagecheckerboard="0"
     inkscape:deskcolor="#d1d1d1"
     inkscape:zoom="17.412504"
     inkscape:cx="27.709971"
     inkscape:cy="32.591521"
     inkscape:window-width="2194"
     inkscape:window-height="1152"
     inkscape:window-x="0"
     inkscape:window-y="0"
     inkscape:window-maximized="0"
     inkscape:current-layer="svg11"
     showgrid="false" />
  <defs
     id="defs2">
    <style
       id="current-color-scheme"
       type="text/css">.ColorScheme-Text {color:#ffffff} .ColorScheme-Highlight {color:#3b4252}</style>
  </defs>
  <metadata
     id="metadata2">
    <rdf:RDF>
      <cc:Work
         rdf:about="">
        <dc:format>image/svg+xml</dc:format>
        <dc:type
           rdf:resource="http://purl.org/dc/dcmitype/StillImage" />
      </cc:Work>
    </rdf:RDF>
  </metadata>
  <path
     style="fill:currentColor;fill-opacity:1;stroke:none;"
     d="m 32.405478,12.976621 -5.400672,-0.184171 -2.821632,0.154311 -2.375933,0.2582 L 16.371,4.58 C 15.793499,3.7015492 16.78879,2.641201 17.702,3.162 l 15.796101,9.197423 z m 6.10096,2.205268 L 46.431,19.542 c 0.472,0.27 0.643,0.865 0.386,1.344 l -5.559,10.32 c -0.0771,0.142321 -0.187599,0.263799 -0.322,0.354 L 38.069501,33.115011 39.614,30.04 38.442417,20.796 38.52575,17.337 Z"
     id="path2"
     sodipodi:nodetypes="cccccccccccccccccc"
     class="ColorScheme-Text" />
  <path
     style="fill:currentColor;fill-opacity:1;stroke:none;"
     d="M 33.338397,37.112247 21.94,46.742 c -0.179119,0.148423 -0.404378,0.229757 -0.637,0.23 -0.124908,-2e-6 -0.24871,-0.02341 -0.365,-0.069 L 9.177,42.283 C 8.8471727,42.153431 8.6105493,41.858983 8.555,41.509 L 3.992,12.649 C 3.9316361,12.269457 4.0941209,11.8889 4.41,11.67 L 16.639,3.21 c 0.461486,-0.3216568 1.097545,-0.1980668 1.405,0.273 l 6.367119,9.632884 -2.538878,0.09106 L 16.935,5.436 6.065,12.957 10.44,40.63 21.119,44.825 31.316374,36.884559 Z"
     id="path4"
     sodipodi:nodetypes="cccccccccccccccccc"
     class="ColorScheme-Text" />
  <path
     style="fill:currentColor;fill-opacity:1;stroke:none;"
     d="M 38.763498,21.042473 46.846,38.418 c 0.20998,0.462988 0.03917,1.009838 -0.397,1.271 l -12.054,7.2 c -0.154739,0.09264 -0.331651,0.141702 -0.512,0.142 -0.162,0 -0.324,-0.039 -0.473,-0.118 l -7.724,-4.14 c -0.290216,-0.155819 -0.485081,-0.444564 -0.521,-0.772 l -0.654599,-5.195058 2.038522,-0.08443 0.547077,4.537492 5.567553,-4.145447 5.630775,0.203979 -0.535907,-14.071801 z M 33.563978,13.044555 30.274889,11.354049 23.987,13.096 22.23,12.028 30.187,3.988 c 0.505581,-0.5108321 1.368879,-0.3374347 1.638,0.329 l 3.628,9 z"
     id="path6"
     sodipodi:nodetypes="ccccccccccccccccccccccc"
     class="ColorScheme-Text" />
  <path
     style="fill:currentColor;fill-opacity:1;stroke:none;"
     d="m 21.819218,13.047872 -5.520485,-0.02969 -2.121326,0.203926 -0.02585,24.703753 7.391619,-0.470959 8.624668,-0.04657 2.56149,0.170965 L 21.94,46.742 c -0.179119,0.148423 -0.404378,0.229757 -0.637,0.23 -0.124908,-2e-6 -0.24871,-0.02341 -0.365,-0.069 L 9.177,42.283 C 8.8471727,42.153431 8.6105493,41.858983 8.555,41.509 L 3.992,12.649 C 3.9316361,12.269457 4.0941209,11.8889 4.41,11.67 L 16.639,3.21 c 0.461486,-0.3216568 1.097545,-0.1980668 1.405,0.273 l 6.367119,9.473818 z"
     id="path8"
     sodipodi:nodetypes="cccccccccccccccccc"
     class="ColorScheme-Text" />
  <path
     style="fill:currentColor;fill-opacity:1;stroke:none;"
     d="m 37.986,38.031 h -24 a 1,1 0 0 1 -1,-1 v -24 a 1,1 0 0 1 1,-1 h 24 a 1,1 0 0 1 1,1 v 24 a 1,1 0 0 1 -1,1 z m -23,-2 h 22 v -22 h -22 z"
     id="path10"
     class="ColorScheme-Text" />
  <path
     style="fill:currentColor;fill-opacity:1;stroke:none;"
     d="m 26,33 h -9 v -2 h 9 z m 0.866,-7.987 h 3.385 c 2.786,0 4.749,-2.109 4.749,-4.616 0,-2.451 -1.894,-4.388 -4.68,-4.388 h -3.454 z m 3.454,-7.246 c 1.616,0 2.674,1.119 2.674,2.769 0,1.591 -1.114,2.71 -2.674,2.71 l -1.417,0.003 V 17.766 Z M 16.992,25 h 2.006 v -2.734 h 1.504 L 22.341,25 h 2.284 l -2.173,-3.189 q 0.836,-0.342 1.337,-1.025 C 24.29,20.103 24.29,19.761 24.29,19.02 v -0.057 c 0,-0.854 -0.223,-1.538 -0.724,-2.05 -0.613,-0.57 -1.449,-0.911 -2.563,-0.911 H 16.991 V 25 Z m 2.006,-4.67 v -2.563 h 1.894 c 0.501,0 0.836,0.171 1.114,0.342 0.279,0.228 0.39,0.513 0.39,0.968 v 0.057 c 0,0.342 -0.111,0.683 -0.39,0.911 -0.279,0.228 -0.656,0.285 -1.102,0.285 z"
     id="path11"
     class="ColorScheme-Text" />
</svg>
